<?xml version="1.0" standalone="no"?>
<!DOCTYPE svg PUBLIC "-//W3C//DTD SVG 20010904//EN"
 "http://www.w3.org/TR/2001/REC-SVG-20010904/DTD/svg10.dtd">
<svg version="1.0" xmlns="http://www.w3.org/2000/svg"
 width="1024.000000pt" height="10.000000pt" viewBox="0 0 1024.000000 10.000000"
 preserveAspectRatio="xMidYMid meet">

<g transform="translate(0.000000,10.000000) scale(0.100000,-0.100000)"
fill="#000000" stroke="none">
<path d="M6440 90 c0 -5 18 -10 40 -10 22 0 40 5 40 10 0 6 -18 10 -40 10 -22
0 -40 -4 -40 -10z"/>
<path d="M6732 75 c0 -16 2 -22 5 -12 2 9 2 23 0 30 -3 6 -5 -1 -5 -18z"/>
<path d="M7481 84 c0 -11 3 -14 6 -6 3 7 2 16 -1 19 -3 4 -6 -2 -5 -13z"/>
<path d="M7542 80 c0 -14 2 -19 5 -12 2 6 2 18 0 25 -3 6 -5 1 -5 -13z"/>
<path d="M7682 80 c0 -14 2 -19 5 -12 2 6 2 18 0 25 -3 6 -5 1 -5 -13z"/>
<path d="M7784 75 c1 -12 9 -21 21 -22 14 -1 15 0 3 3 -9 3 -19 13 -21 22 -3
12 -4 11 -3 -3z"/>
<path d="M7834 75 c1 -12 9 -21 21 -22 14 -1 15 0 3 3 -9 3 -19 13 -21 22 -3
12 -4 11 -3 -3z"/>
<path d="M7892 75 c0 -16 2 -22 5 -12 2 9 2 23 0 30 -3 6 -5 -1 -5 -18z"/>
<path d="M7922 75 c0 -16 2 -22 5 -12 2 9 2 23 0 30 -3 6 -5 -1 -5 -18z"/>
<path d="M7972 75 c0 -16 2 -22 5 -12 2 9 2 23 0 30 -3 6 -5 -1 -5 -18z"/>
<path d="M8061 81 c-1 -16 -5 -21 -16 -17 -8 3 -15 1 -15 -4 0 -6 7 -10 15
-10 18 0 29 23 22 42 -3 7 -6 2 -6 -11z"/>
<path d="M8084 75 c1 -20 36 -36 36 -16 0 6 -6 8 -14 5 -9 -3 -16 2 -19 13 -3
15 -4 15 -3 -2z"/>
<path d="M8142 75 c0 -16 2 -22 5 -12 2 9 2 23 0 30 -3 6 -5 -1 -5 -18z"/>
<path d="M8201 81 c-1 -16 -5 -21 -16 -17 -8 3 -15 1 -15 -4 0 -6 7 -10 15
-10 18 0 29 23 22 42 -3 7 -6 2 -6 -11z"/>
<path d="M8222 75 c0 -16 2 -22 5 -12 2 9 2 23 0 30 -3 6 -5 -1 -5 -18z"/>
<path d="M8367 79 c-5 -20 17 -39 30 -25 4 3 -1 6 -9 6 -11 0 -14 6 -11 20 3
11 3 20 0 20 -2 0 -7 -9 -10 -21z"/>
<path d="M8891 84 c0 -11 3 -14 6 -6 3 7 2 16 -1 19 -3 4 -6 -2 -5 -13z"/>
<path d="M8952 80 c0 -14 2 -19 5 -12 2 6 2 18 0 25 -3 6 -5 1 -5 -13z"/>
<path d="M9092 80 c0 -14 2 -19 5 -12 2 6 2 18 0 25 -3 6 -5 1 -5 -13z"/>
<path d="M9194 75 c1 -12 9 -21 21 -22 14 -1 15 0 3 3 -9 3 -19 13 -21 22 -3
12 -4 11 -3 -3z"/>
<path d="M9244 75 c1 -12 9 -21 21 -22 14 -1 15 0 3 3 -9 3 -19 13 -21 22 -3
12 -4 11 -3 -3z"/>
<path d="M9302 75 c0 -16 2 -22 5 -12 2 9 2 23 0 30 -3 6 -5 -1 -5 -18z"/>
<path d="M9332 75 c0 -16 2 -22 5 -12 2 9 2 23 0 30 -3 6 -5 -1 -5 -18z"/>
<path d="M9382 75 c0 -16 2 -22 5 -12 2 9 2 23 0 30 -3 6 -5 -1 -5 -18z"/>
<path d="M9471 81 c-1 -16 -5 -21 -16 -17 -8 3 -15 1 -15 -4 0 -6 7 -10 15
-10 18 0 29 23 22 42 -3 7 -6 2 -6 -11z"/>
<path d="M9494 75 c1 -20 36 -36 36 -16 0 6 -6 8 -14 5 -9 -3 -16 2 -19 13 -3
15 -4 15 -3 -2z"/>
<path d="M9552 75 c0 -16 2 -22 5 -12 2 9 2 23 0 30 -3 6 -5 -1 -5 -18z"/>
<path d="M9611 81 c-1 -16 -5 -21 -16 -17 -8 3 -15 1 -15 -4 0 -6 7 -10 15
-10 18 0 29 23 22 42 -3 7 -6 2 -6 -11z"/>
<path d="M9632 75 c0 -16 2 -22 5 -12 2 9 2 23 0 30 -3 6 -5 -1 -5 -18z"/>
<path d="M9801 87 c-1 -11 -6 -15 -13 -11 -6 4 -8 3 -4 -4 3 -6 -2 -13 -11
-15 -15 -4 -15 -5 -2 -6 21 -1 43 24 36 41 -3 8 -6 6 -6 -5z"/>
<path d="M10010 90 c-23 -7 -23 -8 -3 -9 12 -1 23 -7 26 -13 3 -7 4 -3 4 10
-1 12 -1 22 -2 21 0 -1 -11 -5 -25 -9z"/>
<path d="M8280 69 c0 -6 -7 -8 -16 -5 -8 3 -12 2 -9 -4 10 -15 35 -12 35 5 0
8 -2 15 -5 15 -3 0 -5 -5 -5 -11z"/>
<path d="M9690 69 c0 -6 -7 -8 -16 -5 -8 3 -12 2 -9 -4 10 -15 35 -12 35 5 0
8 -2 15 -5 15 -3 0 -5 -5 -5 -11z"/>
<path d="M6630 56 c7 -7 13 -7 20 0 6 6 3 10 -10 10 -13 0 -16 -4 -10 -10z"/>
<path d="M6790 56 c7 -7 13 -7 20 0 6 6 3 10 -10 10 -13 0 -16 -4 -10 -10z"/>
<path d="M7200 56 c7 -7 13 -7 20 0 6 6 3 10 -10 10 -13 0 -16 -4 -10 -10z"/>
<path d="M7450 60 c-9 -6 -10 -10 -3 -10 6 0 15 5 18 10 8 12 4 12 -15 0z"/>
<path d="M8610 56 c7 -7 13 -7 20 0 6 6 3 10 -10 10 -13 0 -16 -4 -10 -10z"/>
<path d="M8860 60 c-9 -6 -10 -10 -3 -10 6 0 15 5 18 10 8 12 4 12 -15 0z"/>
<path d="M6578 53 c6 -2 18 -2 25 0 6 3 1 5 -13 5 -14 0 -19 -2 -12 -5z"/>
<path d="M6978 53 c7 -3 16 -2 19 1 4 3 -2 6 -13 5 -11 0 -14 -3 -6 -6z"/>
</g>
</svg>
